<?xml version="1.0" encoding="UTF-8" standalone="no"?>
<svg
   xmlns:dc="http://purl.org/dc/elements/1.1/"
   xmlns:cc="http://creativecommons.org/ns#"
   xmlns:rdf="http://www.w3.org/1999/02/22-rdf-syntax-ns#"
   xmlns:svg="http://www.w3.org/2000/svg"
   xmlns="http://www.w3.org/2000/svg"
   id="svg8"
   version="1.1"
   viewBox="0 0 8.4666665 8.4666669"
   height="32"
   width="32">
  <defs
     id="defs2" />
  <metadata
     id="metadata5">
    <rdf:RDF>
      <cc:Work
         rdf:about="">
        <dc:format>image/svg+xml</dc:format>
        <dc:type
           rdf:resource="http://purl.org/dc/dcmitype/StillImage" />
        <dc:title></dc:title>
      </cc:Work>
    </rdf:RDF>
  </metadata>
  <g
     id="layer1">
    <g
       transform="matrix(0.12042634,0,0,0.12042634,0.26470376,0.26464929)"
       id="g423">
      <g
         fill="#a29d86"
         stroke="#cccccc"
         stroke-width="0.214"
         stroke-linejoin="bevel"
         id="g46">
        <path
           d="m 18.93,18.826 9.323,3.394 V 33.177 L 18.93,29.783 Z"
           style="isolation:auto;mix-blend-mode:normal"
           color="#000000"
           overflow="visible"
           fill="#e9e9ff"
           id="path10" />
        <path
           d="m 9.47,22.27 v 10.957 l 9.46,-3.444 V 18.826 Z"
           style="isolation:auto;mix-blend-mode:normal"
           color="#000000"
           overflow="visible"
           fill="#353564"
           id="path12" />
        <path
           d="m 9.47,33.227 9.322,3.393 9.46,-3.443 -9.322,-3.394 z"
           style="isolation:auto;mix-blend-mode:normal"
           color="#000000"
           overflow="visible"
           fill="#afafde"
           id="path14" />
        <path
           d="m 9.47,22.27 9.322,3.393 9.46,-3.443 -9.322,-3.394 z"
           fill="#f7f7f4"
           id="path16" />
        <path
           d="M 18.792,25.663 V 36.62 l 9.46,-3.443 V 22.22 Z"
           fill="#ffffff"
           id="path18" />
        <path
           d="m 9.47,22.27 9.322,3.393 V 36.62 L 9.47,33.227 Z"
           fill="#efeeea"
           id="path20" />
        <path
           style="isolation:auto;mix-blend-mode:normal"
           d="m 28.293,11.166 9.323,3.393 v 10.957 l -9.323,-3.393 z"
           color="#000000"
           overflow="visible"
           fill="#e9e9ff"
           id="path22" />
        <path
           style="isolation:auto;mix-blend-mode:normal"
           d="m 18.833,14.609 v 10.957 l 9.46,-3.443 V 11.166 Z"
           color="#000000"
           overflow="visible"
           fill="#353564"
           id="path24" />
        <path
           style="isolation:auto;mix-blend-mode:normal"
           d="m 18.833,25.566 9.322,3.393 9.461,-3.443 -9.323,-3.393 z"
           color="#000000"
           overflow="visible"
           fill="#afafde"
           id="path26" />
        <path
           d="m 18.833,14.609 9.322,3.393 9.461,-3.443 -9.323,-3.393 z"
           fill="#f7f7f4"
           id="path28" />
        <path
           d="M 28.155,18.002 V 28.96 l 9.461,-3.443 V 14.559 Z"
           fill="#ffffff"
           id="path30" />
        <path
           d="m 18.833,14.609 9.322,3.393 V 28.96 l -9.322,-3.393 z"
           fill="#efeeea"
           id="path32" />
        <path
           d="m 9.567,33.297 9.322,3.393 V 47.647 L 9.567,44.254 Z"
           style="isolation:auto;mix-blend-mode:normal"
           color="#000000"
           overflow="visible"
           fill="#e9e9ff"
           id="path34" />
        <path
           d="m 0.106,36.74 v 10.957 l 9.46,-3.443 V 33.297 Z"
           style="isolation:auto;mix-blend-mode:normal"
           color="#000000"
           overflow="visible"
           fill="#353564"
           id="path36" />
        <path
           d="M 0.106,47.697 9.43,51.09 18.89,47.647 9.568,44.254 Z"
           style="isolation:auto;mix-blend-mode:normal"
           color="#000000"
           overflow="visible"
           fill="#afafde"
           id="path38" />
        <path
           d="m 0.106,36.74 9.323,3.393 9.46,-3.443 -9.322,-3.393 z"
           fill="#f7f7f4"
           id="path40" />
        <path
           d="M 9.429,40.133 V 51.09 l 9.46,-3.443 V 36.69 Z"
           fill="#ffffff"
           id="path42" />
        <path
           d="m 0.106,36.74 9.323,3.393 V 51.09 L 0.106,47.697 Z"
           fill="#efeeea"
           id="path44" />
      </g>
      <g
         fill="#a29d86"
         stroke="#cccccc"
         stroke-width="0.214"
         stroke-linejoin="bevel"
         id="g60">
        <path
           style="isolation:auto;mix-blend-mode:normal"
           d="m 18.93,36.702 9.323,3.393 V 51.052 L 18.93,47.659 Z"
           color="#000000"
           overflow="visible"
           fill="#e9e9ff"
           id="path48" />
        <path
           style="isolation:auto;mix-blend-mode:normal"
           d="m 9.47,40.145 v 10.957 l 9.46,-3.443 V 36.702 Z"
           color="#000000"
           overflow="visible"
           fill="#353564"
           id="path50" />
        <path
           style="isolation:auto;mix-blend-mode:normal"
           d="m 9.47,51.102 9.322,3.393 9.46,-3.443 -9.322,-3.393 z"
           color="#000000"
           overflow="visible"
           fill="#afafde"
           id="path52" />
        <path
           d="m 9.47,40.145 9.322,3.393 9.46,-3.443 -9.322,-3.393 z"
           fill="#f7f7f4"
           id="path54" />
        <path
           d="m 18.792,43.538 v 10.957 l 9.46,-3.443 V 40.095 Z"
           fill="#ffffff"
           id="path56" />
        <path
           d="m 9.47,40.145 9.322,3.393 V 54.495 L 9.47,51.102 Z"
           fill="#efeeea"
           id="path58" />
      </g>
      <g
         fill="#a29d86"
         stroke="#cccccc"
         stroke-width="0.214"
         stroke-linejoin="bevel"
         id="g74">
        <path
           d="m 18.93,25.636 9.323,3.393 V 39.986 L 18.93,36.593 Z"
           style="isolation:auto;mix-blend-mode:normal"
           color="#000000"
           overflow="visible"
           fill="#e9e9ff"
           id="path62" />
        <path
           d="m 9.47,29.08 v 10.956 l 9.46,-3.443 V 25.636 Z"
           style="isolation:auto;mix-blend-mode:normal"
           color="#000000"
           overflow="visible"
           fill="#353564"
           id="path64" />
        <path
           d="m 9.47,40.036 9.322,3.394 9.46,-3.444 -9.322,-3.393 z"
           style="isolation:auto;mix-blend-mode:normal"
           color="#000000"
           overflow="visible"
           fill="#afafde"
           id="path66" />
        <path
           d="m 9.47,29.08 9.322,3.393 9.46,-3.444 -9.322,-3.393 z"
           fill="#f7f7f4"
           id="path68" />
        <path
           d="M 18.792,32.473 V 43.43 l 9.46,-3.444 V 29.03 Z"
           fill="#ffffff"
           id="path70" />
        <path
           d="m 9.47,29.08 9.322,3.393 V 43.43 L 9.47,40.036 Z"
           fill="#efeeea"
           id="path72" />
      </g>
      <g
         fill="#a29d86"
         stroke="#cccccc"
         stroke-width="0.214"
         stroke-linejoin="bevel"
         id="g88">
        <path
           style="isolation:auto;mix-blend-mode:normal"
           d="m 56.383,29.892 9.323,3.393 v 10.957 l -9.323,-3.393 z"
           color="#000000"
           overflow="visible"
           fill="#e9e9ff"
           id="path76" />
        <path
           style="isolation:auto;mix-blend-mode:normal"
           d="m 46.923,33.335 v 10.957 l 9.46,-3.443 V 29.892 Z"
           color="#000000"
           overflow="visible"
           fill="#353564"
           id="path78" />
        <path
           style="isolation:auto;mix-blend-mode:normal"
           d="m 46.923,44.292 9.322,3.394 9.46,-3.444 -9.322,-3.393 z"
           color="#000000"
           overflow="visible"
           fill="#afafde"
           id="path80" />
        <path
           d="m 46.923,33.335 9.322,3.394 9.46,-3.444 -9.322,-3.393 z"
           fill="#f7f7f4"
           id="path82" />
        <path
           d="m 56.245,36.729 v 10.957 l 9.46,-3.444 V 33.285 Z"
           fill="#ffffff"
           id="path84" />
        <path
           d="m 46.923,33.335 9.322,3.394 v 10.957 l -9.322,-3.394 z"
           fill="#efeeea"
           id="path86" />
      </g>
      <g
         transform="matrix(0.65177,0,0,0.65177,-1683.66,-513.275)"
         id="g106">
        <g
           fill="#a29d86"
           stroke="#cccccc"
           stroke-width="0.328"
           stroke-linejoin="bevel"
           id="g102">
          <path
             style="isolation:auto;mix-blend-mode:normal"
             d="m 2655.349,838.594 14.303,5.206 v 16.811 l -14.303,-5.206 z"
             color="#000000"
             overflow="visible"
             fill="#e9e9ff"
             id="path90" />
          <path
             style="isolation:auto;mix-blend-mode:normal"
             d="m 2640.834,843.877 v 16.811 l 14.515,-5.283 v -16.81 z"
             color="#000000"
             overflow="visible"
             fill="#353564"
             id="path92" />
          <path
             style="isolation:auto;mix-blend-mode:normal"
             d="m 2640.834,860.688 14.303,5.206 14.515,-5.283 -14.303,-5.206 z"
             color="#000000"
             overflow="visible"
             fill="#afafde"
             id="path94" />
          <path
             d="m 2640.834,843.877 14.303,5.206 14.515,-5.283 -14.303,-5.206 z"
             fill="#f7f7f4"
             id="path96" />
          <path
             d="m 2655.137,849.083 v 16.811 l 14.515,-5.283 v -16.81 z"
             fill="#ffd242"
             id="path98" />
          <path
             d="m 2640.834,843.877 14.303,5.206 v 16.811 l -14.303,-5.206 z"
             fill="#efeeea"
             id="path100" />
        </g>
        <circle
           transform="matrix(0.9397,-0.34202283,0,1,0,0)"
           cy="1823.899"
           cx="2835.218"
           r="2.967"
           fill="#ffffff"
           id="circle104" />
      </g>
      <g
         fill="#a29d86"
         stroke="#cccccc"
         stroke-width="0.214"
         stroke-linejoin="bevel"
         id="g120">
        <path
           d="m 37.657,36.702 9.322,3.393 v 10.957 l -9.322,-3.393 z"
           style="isolation:auto;mix-blend-mode:normal"
           color="#000000"
           overflow="visible"
           fill="#e9e9ff"
           id="path108" />
        <path
           d="m 28.196,40.145 v 10.957 l 9.46,-3.443 V 36.702 Z"
           style="isolation:auto;mix-blend-mode:normal"
           color="#000000"
           overflow="visible"
           fill="#353564"
           id="path110" />
        <path
           d="m 28.196,51.102 9.323,3.393 9.46,-3.443 -9.322,-3.393 z"
           style="isolation:auto;mix-blend-mode:normal"
           color="#000000"
           overflow="visible"
           fill="#afafde"
           id="path112" />
        <path
           d="m 28.196,40.145 9.323,3.393 9.46,-3.443 -9.322,-3.393 z"
           fill="#f7f7f4"
           id="path114" />
        <path
           d="m 37.519,43.538 v 10.957 l 9.46,-3.443 V 40.095 Z"
           fill="#ffd242"
           id="path116" />
        <path
           d="m 28.196,40.145 9.323,3.393 v 10.957 l -9.323,-3.393 z"
           fill="#efeeea"
           id="path118" />
      </g>
      <g
         fill="#a29d86"
         stroke="#cccccc"
         stroke-width="0.214"
         stroke-linejoin="bevel"
         id="g134">
        <path
           style="isolation:auto;mix-blend-mode:normal"
           d="M 28.293,40.107 37.616,43.5 V 54.457 L 28.293,51.064 Z"
           color="#000000"
           overflow="visible"
           fill="#e9e9ff"
           id="path122" />
        <path
           style="isolation:auto;mix-blend-mode:normal"
           d="m 18.833,43.55 v 10.957 l 9.46,-3.443 V 40.107 Z"
           color="#000000"
           overflow="visible"
           fill="#353564"
           id="path124" />
        <path
           style="isolation:auto;mix-blend-mode:normal"
           d="m 18.833,54.507 9.322,3.393 9.46,-3.443 -9.322,-3.393 z"
           color="#000000"
           overflow="visible"
           fill="#afafde"
           id="path126" />
        <path
           d="m 18.833,43.55 9.322,3.393 9.46,-3.443 -9.322,-3.393 z"
           fill="#f7f7f4"
           id="path128" />
        <path
           d="M 28.155,46.943 V 57.9 l 9.46,-3.443 V 43.5 Z"
           fill="#ffffff"
           id="path130" />
        <path
           d="m 18.833,43.55 9.322,3.393 V 57.9 l -9.322,-3.393 z"
           fill="#efeeea"
           id="path132" />
      </g>
      <g
         fill="#a29d86"
         stroke="#cccccc"
         stroke-width="0.214"
         stroke-linejoin="bevel"
         id="g148">
        <path
           d="m 56.383,18.826 9.323,3.394 v 10.957 l -9.323,-3.394 z"
           style="isolation:auto;mix-blend-mode:normal"
           color="#000000"
           overflow="visible"
           fill="#e9e9ff"
           id="path136" />
        <path
           d="m 46.923,22.27 v 10.957 l 9.46,-3.444 V 18.826 Z"
           style="isolation:auto;mix-blend-mode:normal"
           color="#000000"
           overflow="visible"
           fill="#353564"
           id="path138" />
        <path
           d="m 46.923,33.227 9.322,3.393 9.46,-3.443 -9.322,-3.394 z"
           style="isolation:auto;mix-blend-mode:normal"
           color="#000000"
           overflow="visible"
           fill="#afafde"
           id="path140" />
        <path
           d="m 46.923,22.27 9.322,3.393 9.46,-3.443 -9.322,-3.394 z"
           fill="#f7f7f4"
           id="path142" />
        <path
           d="M 56.245,25.663 V 36.62 l 9.46,-3.443 V 22.22 Z"
           fill="#ffd242"
           id="path144" />
        <path
           d="m 46.923,22.27 9.322,3.393 V 36.62 l -9.322,-3.393 z"
           fill="#efeeea"
           id="path146" />
      </g>
      <g
         fill="#a29d86"
         stroke="#cccccc"
         stroke-width="0.214"
         stroke-linejoin="bevel"
         id="g162">
        <path
           style="isolation:auto;mix-blend-mode:normal"
           d="m 56.383,7.76 9.323,3.394 V 22.11 l -9.323,-3.393 z"
           color="#000000"
           overflow="visible"
           fill="#e9e9ff"
           id="path150" />
        <path
           style="isolation:auto;mix-blend-mode:normal"
           d="m 46.923,11.204 v 10.957 l 9.46,-3.443 V 7.76 Z"
           color="#000000"
           overflow="visible"
           fill="#353564"
           id="path152" />
        <path
           style="isolation:auto;mix-blend-mode:normal"
           d="m 46.923,22.161 9.322,3.393 9.46,-3.443 -9.322,-3.393 z"
           color="#000000"
           overflow="visible"
           fill="#afafde"
           id="path154" />
        <path
           d="m 46.923,11.204 9.322,3.393 9.46,-3.443 -9.322,-3.393 z"
           fill="#ffc91d"
           id="path156" />
        <path
           d="m 56.245,14.597 v 10.957 l 9.46,-3.443 V 11.154 Z"
           fill="#ffd242"
           id="path158" />
        <path
           d="m 46.923,11.204 9.322,3.393 v 10.957 l -9.322,-3.393 z"
           fill="#efeeea"
           id="path160" />
      </g>
      <g
         fill="#a29d86"
         stroke="#cccccc"
         stroke-width="0.214"
         stroke-linejoin="bevel"
         id="g176">
        <path
           style="isolation:auto;mix-blend-mode:normal"
           d="m 47.02,22.231 9.322,3.393 V 36.581 L 47.02,33.188 Z"
           color="#000000"
           overflow="visible"
           fill="#e9e9ff"
           id="path164" />
        <path
           style="isolation:auto;mix-blend-mode:normal"
           d="m 37.56,25.675 v 10.957 l 9.46,-3.444 V 22.231 Z"
           color="#000000"
           overflow="visible"
           fill="#353564"
           id="path166" />
        <path
           style="isolation:auto;mix-blend-mode:normal"
           d="m 37.56,36.632 9.322,3.393 9.46,-3.444 -9.322,-3.393 z"
           color="#000000"
           overflow="visible"
           fill="#afafde"
           id="path168" />
        <path
           d="m 37.56,25.675 9.322,3.393 9.46,-3.444 -9.322,-3.393 z"
           fill="#f7f7f4"
           id="path170" />
        <path
           d="m 46.882,29.068 v 10.957 l 9.46,-3.444 V 25.624 Z"
           fill="#ffd242"
           id="path172" />
        <path
           d="m 37.56,25.675 9.322,3.393 v 10.957 l -9.323,-3.393 z"
           fill="#efeeea"
           id="path174" />
      </g>
      <g
         fill="#a29d86"
         stroke="#cccccc"
         stroke-width="0.214"
         stroke-linejoin="bevel"
         id="g190">
        <path
           d="m 47.02,11.166 9.322,3.393 V 25.516 L 47.02,22.123 Z"
           style="isolation:auto;mix-blend-mode:normal"
           color="#000000"
           overflow="visible"
           fill="#e9e9ff"
           id="path178" />
        <path
           d="m 37.56,14.609 v 10.957 l 9.46,-3.443 V 11.166 Z"
           style="isolation:auto;mix-blend-mode:normal"
           color="#000000"
           overflow="visible"
           fill="#353564"
           id="path180" />
        <path
           d="m 37.56,25.566 9.322,3.393 9.46,-3.443 -9.322,-3.393 z"
           style="isolation:auto;mix-blend-mode:normal"
           color="#000000"
           overflow="visible"
           fill="#afafde"
           id="path182" />
        <path
           d="m 37.56,14.609 9.322,3.393 9.46,-3.443 -9.322,-3.393 z"
           fill="#f7f7f4"
           id="path184" />
        <path
           d="M 46.882,18.002 V 28.96 l 9.46,-3.443 V 14.559 Z"
           fill="#3775a9"
           id="path186" />
        <path
           d="m 37.56,14.609 9.322,3.393 V 28.96 l -9.323,-3.393 z"
           fill="#efeeea"
           id="path188" />
      </g>
      <g
         fill="#a29d86"
         stroke="#cccccc"
         stroke-width="0.214"
         stroke-linejoin="bevel"
         id="g204">
        <path
           style="isolation:auto;mix-blend-mode:normal"
           d="m 47.02,0.1 9.322,3.393 V 14.45 L 47.02,11.057 Z"
           color="#000000"
           overflow="visible"
           fill="#e9e9ff"
           id="path192" />
        <path
           style="isolation:auto;mix-blend-mode:normal"
           d="M 37.56,3.543 V 14.5 l 9.46,-3.443 V 0.1 Z"
           color="#000000"
           overflow="visible"
           fill="#353564"
           id="path194" />
        <path
           style="isolation:auto;mix-blend-mode:normal"
           d="m 37.56,14.5 9.322,3.393 9.46,-3.443 -9.322,-3.393 z"
           color="#000000"
           overflow="visible"
           fill="#afafde"
           id="path196" />
        <path
           d="M 37.56,3.543 46.882,6.936 56.342,3.493 47.02,0.1 Z"
           fill="#2f6491"
           id="path198" />
        <path
           d="m 46.882,6.936 v 10.957 l 9.46,-3.443 V 3.493 Z"
           fill="#3775a9"
           id="path200" />
        <path
           d="m 37.56,3.543 9.322,3.393 V 17.893 L 37.559,14.5 Z"
           fill="#efeeea"
           id="path202" />
      </g>
      <g
         fill="#a29d86"
         stroke="#cccccc"
         stroke-width="0.214"
         stroke-linejoin="bevel"
         id="g218">
        <path
           d="m 37.657,25.636 9.322,3.393 v 10.957 l -9.322,-3.393 z"
           style="isolation:auto;mix-blend-mode:normal"
           color="#000000"
           overflow="visible"
           fill="#e9e9ff"
           id="path206" />
        <path
           d="m 28.196,29.08 v 10.956 l 9.46,-3.443 V 25.636 Z"
           style="isolation:auto;mix-blend-mode:normal"
           color="#000000"
           overflow="visible"
           fill="#353564"
           id="path208" />
        <path
           d="m 28.196,40.036 9.323,3.394 9.46,-3.444 -9.322,-3.393 z"
           style="isolation:auto;mix-blend-mode:normal"
           color="#000000"
           overflow="visible"
           fill="#afafde"
           id="path210" />
        <path
           d="m 28.196,29.08 9.323,3.393 9.46,-3.444 -9.322,-3.393 z"
           fill="#f7f7f4"
           id="path212" />
        <path
           d="M 37.519,32.473 V 43.43 l 9.46,-3.444 V 29.03 Z"
           fill="#ffd242"
           id="path214" />
        <path
           d="m 28.196,29.08 9.323,3.393 V 43.43 l -9.323,-3.394 z"
           fill="#efeeea"
           id="path216" />
      </g>
      <g
         fill="#a29d86"
         stroke="#cccccc"
         stroke-width="0.214"
         stroke-linejoin="bevel"
         id="g232">
        <path
           style="isolation:auto;mix-blend-mode:normal"
           d="m 37.657,14.57 9.322,3.394 V 28.92 l -9.322,-3.394 z"
           color="#000000"
           overflow="visible"
           fill="#e9e9ff"
           id="path220" />
        <path
           style="isolation:auto;mix-blend-mode:normal"
           d="M 28.196,18.014 V 28.97 l 9.46,-3.444 V 14.57 Z"
           color="#000000"
           overflow="visible"
           fill="#353564"
           id="path222" />
        <path
           style="isolation:auto;mix-blend-mode:normal"
           d="m 28.196,28.97 9.323,3.394 9.46,-3.443 -9.322,-3.394 z"
           color="#000000"
           overflow="visible"
           fill="#afafde"
           id="path224" />
        <path
           d="m 28.196,18.014 9.323,3.393 9.46,-3.443 -9.322,-3.394 z"
           fill="#f7f7f4"
           id="path226" />
        <path
           d="m 37.519,21.407 v 10.957 l 9.46,-3.443 V 17.964 Z"
           fill="#3775a9"
           id="path228" />
        <path
           d="m 28.196,18.014 9.323,3.393 v 10.957 l -9.323,-3.393 z"
           fill="#efeeea"
           id="path230" />
      </g>
      <g
         fill="#a29d86"
         stroke="#cccccc"
         stroke-width="0.214"
         stroke-linejoin="bevel"
         id="g246">
        <path
           style="isolation:auto;mix-blend-mode:normal"
           d="m 28.293,29.04 9.323,3.394 v 10.957 l -9.323,-3.393 z"
           color="#000000"
           overflow="visible"
           fill="#e9e9ff"
           id="path234" />
        <path
           style="isolation:auto;mix-blend-mode:normal"
           d="m 18.833,32.484 v 10.957 l 9.46,-3.443 V 29.04 Z"
           color="#000000"
           overflow="visible"
           fill="#353564"
           id="path236" />
        <path
           style="isolation:auto;mix-blend-mode:normal"
           d="m 18.833,43.441 9.322,3.393 9.46,-3.443 -9.322,-3.393 z"
           color="#000000"
           overflow="visible"
           fill="#afafde"
           id="path238" />
        <path
           d="m 18.833,32.484 9.322,3.393 9.46,-3.443 -9.322,-3.393 z"
           fill="#f7f7f4"
           id="path240" />
        <path
           d="m 28.155,35.877 v 10.957 l 9.46,-3.443 V 32.434 Z"
           fill="#3775a9"
           id="path242" />
        <path
           d="m 18.833,32.484 9.322,3.393 v 10.957 l -9.322,-3.393 z"
           fill="#2f6491"
           id="path244" />
      </g>
      <g
         fill="#a29d86"
         stroke="#cccccc"
         stroke-width="0.214"
         stroke-linejoin="bevel"
         id="g260">
        <path
           d="m 28.293,17.975 9.323,3.393 v 10.957 l -9.323,-3.393 z"
           style="isolation:auto;mix-blend-mode:normal"
           color="#000000"
           overflow="visible"
           fill="#e9e9ff"
           id="path248" />
        <path
           d="m 18.833,21.419 v 10.957 l 9.46,-3.444 V 17.975 Z"
           style="isolation:auto;mix-blend-mode:normal"
           color="#000000"
           overflow="visible"
           fill="#353564"
           id="path250" />
        <path
           d="m 18.833,32.376 9.322,3.393 9.46,-3.444 -9.322,-3.393 z"
           style="isolation:auto;mix-blend-mode:normal"
           color="#000000"
           overflow="visible"
           fill="#afafde"
           id="path252" />
        <path
           d="m 18.833,21.419 9.322,3.393 9.46,-3.444 -9.322,-3.393 z"
           fill="#2f6491"
           id="path254" />
        <path
           d="m 28.155,24.812 v 10.957 l 9.46,-3.444 V 21.368 Z"
           fill="#3775a9"
           id="path256" />
        <path
           d="m 18.833,21.419 9.322,3.393 v 10.957 l -9.322,-3.393 z"
           fill="#2f6491"
           id="path258" />
      </g>
      <g
         transform="matrix(0.65177,0,0,0.65177,-1683.66,-513.275)"
         id="g278">
        <g
           fill="#a29d86"
           stroke="#cccccc"
           stroke-width="0.328"
           stroke-linejoin="bevel"
           id="g274">
          <path
             style="isolation:auto;mix-blend-mode:normal"
             d="m 2640.983,792.885 14.304,5.206 v 16.811 l -14.304,-5.206 z"
             color="#000000"
             overflow="visible"
             fill="#e9e9ff"
             id="path262" />
          <path
             style="isolation:auto;mix-blend-mode:normal"
             d="m 2626.468,798.168 v 16.811 l 14.515,-5.283 v -16.811 z"
             color="#000000"
             overflow="visible"
             fill="#353564"
             id="path264" />
          <path
             style="isolation:auto;mix-blend-mode:normal"
             d="m 2626.468,814.979 14.304,5.206 14.515,-5.283 -14.304,-5.206 z"
             color="#000000"
             overflow="visible"
             fill="#afafde"
             id="path266" />
          <path
             d="m 2626.468,798.168 14.304,5.206 14.515,-5.283 -14.304,-5.206 z"
             fill="#2f6491"
             id="path268" />
          <path
             d="m 2640.772,803.374 v 16.811 l 14.515,-5.283 v -16.811 z"
             fill="#3775a9"
             id="path270" />
          <path
             d="m 2626.468,798.168 14.304,5.206 v 16.811 l -14.304,-5.206 z"
             fill="#2f6491"
             id="path272" />
        </g>
        <circle
           transform="matrix(0.9397,-0.34202283,0,1,0,0)"
           cy="1772.922"
           cx="2816.0171"
           r="2.967"
           fill="#ffffff"
           id="circle276" />
      </g>
    </g>
  </g>
  <g
     id="layer2">
    <path
       id="path826"
       d="M 5.5772901,4.0520245 V 6.6283073 H 4.5467695 l 1.8034108,1.5875 1.803411,-1.5875 H 7.1230707 V 4.0520245 Z"
       style="opacity:1;fill:#3775a9;fill-opacity:1;stroke:#cccccc;stroke-width:0.097;stroke-linecap:round;stroke-linejoin:round;stroke-miterlimit:4;stroke-dasharray:none;stroke-opacity:1" />
  </g>
</svg>
